<?xml version="1.0" encoding="utf-8"?>
<!-- Generator: Adobe Illustrator 27.3.1, SVG Export Plug-In . SVG Version: 6.00 Build 0)  -->
<svg version="1.1" xmlns="http://www.w3.org/2000/svg" xmlns:xlink="http://www.w3.org/1999/xlink" x="0px" y="0px"
	 viewBox="0 0 149 42" style="enable-background:new 0 0 149 42;" xml:space="preserve">
<style type="text/css">
	.st0{display:none;}
	.st1{display:inline;fill:#E84E4E;}
	.st2{fill:none;}
	.st3{fill:#666699;}
	.st4{font-family:'Poppins-Medium';}
	.st5{font-size:18px;}
</style>
<g id="Layer_1" class="st0">
	<path class="st1" d="M41.4,38.8L32.6,30c2.2-2.9,3.3-6.6,3-10.2c-0.4-4.6-2.8-9.1-6.8-13.2C17.3-4.7,3.4,1.9,2.9,2.1L2.3,2.3
		L2.1,2.9C2,3.1-4.8,17.3,6.7,28.8c4.6,4.6,9.7,6.9,14.6,6.9c3.1,0,6.2-1.1,8.8-3.1l8.8,8.8c0.4,0.4,0.9,0.5,1.3,0.5
		c0.4,0,0.9-0.2,1.3-0.5C42.2,40.6,42.2,39.5,41.4,38.8z M9.3,26.2C0.7,17.6,4.2,7.6,5.1,5c2.6-1.1,12.6-4.3,21.2,4.2
		c3.5,3.5,5.3,7.1,5.7,10.7c0.2,2.8-0.4,5.3-2,7.3l-4.7-4.7V14c0-1.1-0.7-1.8-1.8-1.8s-1.8,0.7-1.8,1.8v4.9l-5.1-5.1
		c-0.7-0.7-1.8-0.7-2.6,0c-0.7,0.7-0.7,1.8,0,2.6l3.5,3.5h-4.9c-1.1,0-1.8,0.7-1.8,1.8c0,1.1,0.7,1.8,1.8,1.8H21l1.1,1.1l5.1,5.1
		C22.4,33.7,15.3,32.2,9.3,26.2z"/>
	<path class="st1" d="M54.2,32.2c-1,0-2.2,0-3.4-0.1c-1.3-0.1-2.4-0.2-3.3-0.3v-2.2c2.4,0.2,4.5,0.4,6.1,0.4c1,0,1.8,0,2.4-0.1
		c0.6-0.1,1.1-0.3,1.5-0.5c0.4-0.2,0.6-0.6,0.7-1c0.1-0.4,0.2-1,0.2-1.8c0-0.9,0-1.5-0.1-1.8c-0.1-0.4-0.3-0.6-0.7-0.8
		c-0.3-0.2-0.9-0.3-1.8-0.4L51,23.1c-1.2-0.1-2-0.4-2.6-0.8c-0.6-0.4-1-1-1.2-1.7c-0.2-0.7-0.3-1.6-0.3-2.7c0-1.5,0.3-2.7,0.8-3.5
		c0.5-0.8,1.3-1.3,2.2-1.6c1-0.3,2.3-0.4,3.9-0.4c1.1,0,2.2,0,3.3,0.1c1.1,0.1,2,0.2,2.7,0.3v2.1c-0.7-0.1-1.6-0.2-2.6-0.3
		c-1-0.1-2-0.1-2.9-0.1c-1,0-1.9,0-2.5,0.1c-0.6,0.1-1.1,0.3-1.5,0.5c-0.4,0.2-0.6,0.5-0.8,0.9c-0.1,0.4-0.2,0.9-0.2,1.6
		c0,0.8,0.1,1.3,0.2,1.7c0.1,0.3,0.3,0.6,0.6,0.8c0.3,0.1,0.8,0.3,1.6,0.3l4.7,0.5c1.1,0.1,2,0.3,2.6,0.6c0.6,0.3,1.1,0.8,1.3,1.5
		c0.3,0.7,0.4,1.7,0.4,3.2c0,1.7-0.3,3-0.8,3.8c-0.5,0.8-1.2,1.4-2.1,1.6C56.9,32.1,55.7,32.2,54.2,32.2z M65.4,32V12.7h2.4V32H65.4
		z M90.9,32V16.9h-0.1L84.1,32h-1.8l-6.6-15.1h-0.1V32h-2.3V12.7h3.2l6.6,15h0.1l6.6-15h3.2V32H90.9z M98.8,12.7h8.5
		c1.6,0,2.7,0.3,3.5,0.8c0.8,0.5,1.3,1.2,1.6,2c0.3,0.9,0.4,2,0.4,3.3c0,1.3-0.1,2.4-0.4,3.3c-0.3,0.9-0.8,1.5-1.6,2.1
		c-0.8,0.5-2,0.8-3.6,0.8h-6v7h-2.4V12.7z M106.4,22.8c1.2,0,2.1-0.1,2.7-0.4c0.6-0.3,0.9-0.7,1.1-1.2c0.2-0.5,0.3-1.3,0.3-2.4
		s-0.1-1.8-0.3-2.4c-0.1-0.5-0.5-0.9-1.1-1.1c-0.5-0.3-1.4-0.4-2.6-0.4h-5.2v7.8H106.4z M117.1,32V12.7h2.4v16.9h9V32H117.1z
		 M132.2,32V12.7h12.5V15h-10.1v6.2h8.8v2.2h-8.8v6.4h10.1V32H132.2z"/>
	<path class="st1" d="M50.8,32.1l0,0.5h0L50.8,32.1z M47.4,31.8h-0.5v0.4l0.4,0.1L47.4,31.8z M47.4,29.6l0-0.5l-0.5-0.1v0.6H47.4z
		 M55.9,29.9l0.1,0.5l0,0L55.9,29.9z M57.4,29.4l0.2,0.4l0,0l0,0L57.4,29.4z M58.1,28.4l0.5,0.1l0,0L58.1,28.4z M58.2,24.8l-0.5,0.1
		l0,0L58.2,24.8z M57.5,24l-0.2,0.4l0,0L57.5,24z M55.7,23.6l-0.1,0.5l0,0L55.7,23.6z M51,23.1l-0.1,0.5l0,0L51,23.1z M48.3,22.3
		L48,22.7l0,0l0,0L48.3,22.3z M47.2,20.6l-0.5,0.1l0,0l0,0L47.2,20.6z M47.7,14.5l-0.4-0.3l0,0L47.7,14.5z M49.9,12.9l-0.1-0.5l0,0
		L49.9,12.9z M59.8,13h0.5v-0.4l-0.4-0.1L59.8,13z M59.8,15.1l-0.1,0.5l0.6,0.1v-0.6H59.8z M57.1,14.9l0,0.5l0,0L57.1,14.9z
		 M51.7,14.9l0.1,0.5l0,0L51.7,14.9z M50.2,15.4l0.2,0.4l0,0l0,0L50.2,15.4z M49.5,19.5L49,19.7l0,0L49.5,19.5z M50.1,20.3l-0.2,0.4
		l0,0l0,0L50.1,20.3z M51.7,20.6l0.1-0.5l0,0L51.7,20.6z M56.4,21.2l-0.1,0.5l0,0L56.4,21.2z M59,21.8l0.2-0.5l0,0L59,21.8z
		 M60.3,23.3l-0.5,0.2l0,0L60.3,23.3z M59.9,30.3l0.4,0.3l0,0L59.9,30.3z M57.8,31.9l0.1,0.5l0,0L57.8,31.9z M54.2,31.7
		c-1,0-2.2,0-3.4-0.1l-0.1,1c1.3,0.1,2.4,0.1,3.5,0.1V31.7z M50.8,31.6c-1.2-0.1-2.3-0.2-3.3-0.3l-0.1,1c1,0.1,2.1,0.2,3.4,0.3
		L50.8,31.6z M47.9,31.8v-2.2h-1v2.2H47.9z M47.4,30.1c2.4,0.2,4.5,0.4,6.1,0.4v-1c-1.6,0-3.6-0.1-6-0.4L47.4,30.1z M53.5,30.5
		c1,0,1.8,0,2.4-0.1l-0.1-1c-0.5,0.1-1.3,0.1-2.3,0.1V30.5z M56,30.4c0.6-0.1,1.2-0.3,1.7-0.5L57.2,29c-0.3,0.2-0.8,0.3-1.3,0.4
		L56,30.4z M57.7,29.8c0.5-0.3,0.8-0.7,1-1.3l-1-0.3c-0.1,0.3-0.2,0.5-0.5,0.7L57.7,29.8z M58.6,28.5c0.1-0.5,0.2-1.1,0.2-1.9h-1
		c0,0.7-0.1,1.3-0.2,1.6L58.6,28.5z M58.8,26.7c0-0.9,0-1.6-0.2-2l-1,0.3c0.1,0.3,0.1,0.8,0.1,1.7H58.8z M58.6,24.7
		c-0.1-0.5-0.5-0.9-0.9-1.1l-0.4,0.9c0.2,0.1,0.3,0.3,0.4,0.5L58.6,24.7z M57.7,23.5c-0.4-0.2-1.1-0.3-1.9-0.4l-0.1,1
		c0.8,0.1,1.3,0.2,1.6,0.3L57.7,23.5z M55.8,23.1L51,22.6l-0.1,1l4.8,0.5L55.8,23.1z M51,22.6c-1.1-0.1-1.9-0.4-2.4-0.7L48,22.7
		c0.7,0.5,1.7,0.8,2.9,0.9L51,22.6z M48.6,21.9c-0.5-0.4-0.8-0.8-1-1.4l-1,0.3c0.2,0.8,0.7,1.4,1.4,1.9L48.6,21.9z M47.6,20.5
		c-0.2-0.6-0.3-1.5-0.3-2.6h-1c0,1.1,0.1,2.1,0.3,2.8L47.6,20.5z M47.4,17.9c0-1.5,0.3-2.5,0.7-3.2l-0.8-0.6
		c-0.6,0.9-0.9,2.2-0.9,3.7H47.4z M48.1,14.8c0.5-0.7,1.1-1.1,2-1.4l-0.3-1c-1.1,0.3-1.9,0.9-2.5,1.8L48.1,14.8z M50,13.4
		c0.9-0.2,2.2-0.4,3.8-0.4v-1c-1.6,0-3,0.1-4,0.4L50,13.4z M53.8,13c1.1,0,2.2,0,3.3,0.1l0.1-1C56,12.1,54.9,12,53.8,12V13z
		 M57.1,13.2c1.1,0.1,2,0.2,2.6,0.3l0.2-1c-0.7-0.1-1.6-0.2-2.7-0.3L57.1,13.2z M59.3,13v2.1h1V13H59.3z M59.8,14.6
		c-0.7-0.1-1.6-0.2-2.7-0.3l-0.1,1c1,0.1,1.9,0.1,2.6,0.2L59.8,14.6z M57.2,14.4c-1.1-0.1-2-0.1-2.9-0.1v1c0.9,0,1.8,0,2.9,0.1
		L57.2,14.4z M54.2,14.3c-1.1,0-1.9,0-2.6,0.1l0.1,1c0.6-0.1,1.4-0.1,2.4-0.1V14.3z M51.6,14.4c-0.7,0.1-1.2,0.3-1.7,0.5l0.5,0.8
		c0.3-0.2,0.7-0.3,1.3-0.4L51.6,14.4z M50,14.9c-0.5,0.3-0.8,0.7-1,1.2l1,0.3c0.1-0.2,0.2-0.4,0.5-0.6L50,14.9z M49,16.1
		c-0.1,0.4-0.2,1-0.2,1.7h1c0-0.7,0.1-1.1,0.1-1.5L49,16.1z M48.8,17.9c0,0.8,0.1,1.4,0.2,1.8l1-0.3c-0.1-0.3-0.1-0.8-0.1-1.5H48.8z
		 M49,19.7c0.2,0.5,0.5,0.8,0.9,1l0.5-0.9c-0.2-0.1-0.3-0.3-0.4-0.5L49,19.7z M49.9,20.7c0.4,0.2,1,0.3,1.7,0.4l0.1-1
		c-0.7-0.1-1.2-0.2-1.4-0.3L49.9,20.7z M51.6,21.1l4.7,0.5l0.1-1l-4.7-0.5L51.6,21.1z M56.3,21.7c1.1,0.1,1.9,0.3,2.4,0.5l0.4-0.9
		c-0.7-0.3-1.6-0.5-2.8-0.6L56.3,21.7z M58.8,22.2c0.5,0.2,0.8,0.6,1.1,1.2l0.9-0.4c-0.3-0.8-0.8-1.4-1.6-1.8L58.8,22.2z M59.8,23.4
		c0.2,0.6,0.4,1.6,0.4,3h1c0-1.5-0.1-2.6-0.4-3.4L59.8,23.4z M60.2,26.5c0,1.7-0.3,2.8-0.7,3.5l0.8,0.5c0.6-1,0.9-2.3,0.9-4.1H60.2z
		 M59.5,30c-0.5,0.7-1.1,1.2-1.8,1.4l0.3,1c1-0.3,1.8-0.9,2.4-1.8L59.5,30z M57.7,31.4c-0.8,0.2-2,0.3-3.5,0.3v1
		c1.5,0,2.8-0.1,3.7-0.4L57.7,31.4z M65.4,32h-0.5v0.5h0.5V32z M65.4,12.7v-0.5h-0.5v0.5H65.4z M67.8,12.7h0.5v-0.5h-0.5V12.7z
		 M67.8,32v0.5h0.5V32H67.8z M65.9,32V12.7h-1V32H65.9z M65.4,13.2h2.4v-1h-2.4V13.2z M67.3,12.7V32h1V12.7H67.3z M67.8,31.5h-2.4v1
		h2.4V31.5z M90.9,32h-0.5v0.5h0.5V32z M90.9,16.9h0.5v-0.5h-0.5V16.9z M90.8,16.9v-0.5h-0.3l-0.1,0.3L90.8,16.9z M84.1,32v0.5h0.3
		l0.1-0.3L84.1,32z M82.4,32l-0.5,0.2l0.1,0.3h0.3V32z M75.8,16.9l0.5-0.2l-0.1-0.3h-0.3V16.9z M75.7,16.9v-0.5h-0.5v0.5H75.7z
		 M75.7,32v0.5h0.5V32H75.7z M73.4,32h-0.5v0.5h0.5V32z M73.4,12.7v-0.5h-0.5v0.5H73.4z M76.7,12.7l0.5-0.2L77,12.2h-0.3V12.7z
		 M83.2,27.7l-0.5,0.2l0.1,0.3h0.3V27.7z M83.4,27.7v0.5h0.3l0.1-0.3L83.4,27.7z M90,12.7v-0.5h-0.3l-0.1,0.3L90,12.7z M93.2,12.7
		h0.5v-0.5h-0.5V12.7z M93.2,32v0.5h0.5V32H93.2z M91.4,32V16.9h-1V32H91.4z M90.9,16.4h-0.1v1h0.1V16.4z M90.3,16.7l-6.6,15.1
		l0.9,0.4l6.6-15.1L90.3,16.7z M84.1,31.5h-1.8v1h1.8V31.5z M82.8,31.8l-6.6-15.1l-0.9,0.4l6.6,15.1L82.8,31.8z M75.8,16.4h-0.1v1
		h0.1V16.4z M75.2,16.9V32h1V16.9H75.2z M75.7,31.5h-2.3v1h2.3V31.5z M73.9,32V12.7h-1V32H73.9z M73.4,13.2h3.2v-1h-3.2V13.2z
		 M76.2,12.9l6.6,15l0.9-0.4l-6.6-15L76.2,12.9z M83.2,28.2h0.1v-1h-0.1V28.2z M83.8,27.9l6.6-15l-0.9-0.4l-6.6,15L83.8,27.9z
		 M90,13.2h3.2v-1H90V13.2z M92.7,12.7V32h1V12.7H92.7z M93.2,31.5h-2.4v1h2.4V31.5z M98.8,12.7v-0.5h-0.5v0.5H98.8z M110.8,13.5
		l-0.3,0.4l0,0L110.8,13.5z M112.4,15.5l-0.5,0.1l0,0L112.4,15.5z M112.4,22.1l0.5,0.1l0,0L112.4,22.1z M110.8,24.2l-0.3-0.4l0,0
		L110.8,24.2z M101.2,25v-0.5h-0.5V25H101.2z M101.2,32v0.5h0.5V32H101.2z M98.8,32h-0.5v0.5h0.5V32z M109.1,22.4l0.2,0.5l0,0
		L109.1,22.4z M110.2,21.2l-0.5-0.2l0,0L110.2,21.2z M110.2,16.5l-0.5,0.1l0,0l0,0L110.2,16.5z M109.1,15.4l-0.2,0.5l0,0l0,0
		L109.1,15.4z M101.2,15v-0.5h-0.5V15H101.2z M101.2,22.8h-0.5v0.5h0.5V22.8z M98.8,13.2h8.5v-1h-8.5V13.2z M107.3,13.2
		c1.5,0,2.6,0.2,3.3,0.7l0.5-0.8c-0.9-0.6-2.2-0.8-3.8-0.8V13.2z M110.5,13.9c0.7,0.4,1.2,1,1.4,1.8l1-0.3c-0.3-1-0.9-1.8-1.8-2.3
		L110.5,13.9z M111.9,15.7c0.2,0.8,0.4,1.9,0.4,3.2h1c0-1.4-0.1-2.6-0.4-3.5L111.9,15.7z M112.3,18.9c0,1.3-0.1,2.3-0.4,3.1l1,0.3
		c0.3-0.9,0.4-2.1,0.4-3.4H112.3z M111.9,22c-0.2,0.7-0.7,1.3-1.4,1.8l0.5,0.8c0.9-0.6,1.5-1.4,1.8-2.3L111.9,22z M110.5,23.8
		c-0.7,0.4-1.8,0.7-3.3,0.7v1c1.6,0,2.9-0.3,3.8-0.9L110.5,23.8z M107.2,24.5h-6v1h6V24.5z M100.7,25v7h1v-7H100.7z M101.2,31.5
		h-2.4v1h2.4V31.5z M99.3,32V12.7h-1V32H99.3z M106.4,23.3c1.2,0,2.2-0.1,2.9-0.4l-0.4-0.9c-0.5,0.2-1.3,0.3-2.5,0.3V23.3z
		 M109.3,22.8c0.7-0.3,1.1-0.8,1.4-1.5l-1-0.3c-0.1,0.4-0.4,0.7-0.8,0.9L109.3,22.8z M110.6,21.4c0.2-0.6,0.3-1.4,0.3-2.5h-1
		c0,1-0.1,1.8-0.2,2.2L110.6,21.4z M110.9,18.9c0-1.1-0.1-1.9-0.3-2.5l-1,0.3c0.1,0.4,0.2,1.2,0.2,2.2H110.9z M110.6,16.4
		c-0.2-0.7-0.7-1.2-1.3-1.5l-0.4,0.9c0.4,0.2,0.7,0.5,0.8,0.8L110.6,16.4z M109.3,14.9c-0.6-0.3-1.6-0.4-2.8-0.4v1
		c1.2,0,2,0.1,2.4,0.3L109.3,14.9z M106.5,14.5h-5.2v1h5.2V14.5z M100.7,15v7.8h1V15H100.7z M101.2,23.3h5.2v-1h-5.2V23.3z
		 M117.1,32h-0.5v0.5h0.5V32z M117.1,12.7v-0.5h-0.5v0.5H117.1z M119.5,12.7h0.5v-0.5h-0.5V12.7z M119.5,29.7H119v0.5h0.5V29.7z
		 M128.5,29.7h0.5v-0.5h-0.5V29.7z M128.5,32v0.5h0.5V32H128.5z M117.6,32V12.7h-1V32H117.6z M117.1,13.2h2.4v-1h-2.4V13.2z
		 M119,12.7v16.9h1V12.7H119z M119.5,30.2h9v-1h-9V30.2z M128,29.7V32h1v-2.3H128z M128.5,31.5h-11.4v1h11.4V31.5z M132.2,32h-0.5
		v0.5h0.5V32z M132.2,12.7v-0.5h-0.5v0.5H132.2z M144.7,12.7h0.5v-0.5h-0.5V12.7z M144.7,15v0.5h0.5V15H144.7z M134.6,15v-0.5h-0.5
		V15H134.6z M134.6,21.2h-0.5v0.5h0.5V21.2z M143.4,21.2h0.5v-0.5h-0.5V21.2z M143.4,23.4v0.5h0.5v-0.5H143.4z M134.6,23.4v-0.5
		h-0.5v0.5H134.6z M134.6,29.8h-0.5v0.5h0.5V29.8z M144.7,29.8h0.5v-0.5h-0.5V29.8z M144.7,32v0.5h0.5V32H144.7z M132.7,32V12.7h-1
		V32H132.7z M132.2,13.2h12.5v-1h-12.5V13.2z M144.2,12.7V15h1v-2.2H144.2z M144.7,14.5h-10.1v1h10.1V14.5z M134.1,15v6.2h1V15
		H134.1z M134.6,21.7h8.8v-1h-8.8V21.7z M142.9,21.2v2.2h1v-2.2H142.9z M143.4,22.9h-8.8v1h8.8V22.9z M134.1,23.4v6.4h1v-6.4H134.1z
		 M134.6,30.3h10.1v-1h-10.1V30.3z M144.2,29.8V32h1v-2.2H144.2z M144.7,31.5h-12.5v1h12.5V31.5z"/>
</g>
<g id="Layer_2">
	<rect class="st2" width="149" height="42"/>
	<text transform="matrix(1 0 0 1 0.3501 27.6602)" class="st3 st4 st5">if (Mike) {CODE}</text>
</g>
</svg>
